<svg xmlns="http://www.w3.org/2000/svg" width="136" height="30" viewBox="0 0 136 30">
    <defs>
        <linearGradient id="a">
            <stop offset="0%" stop-color="#FF1700"/>
            <stop offset="100%" stop-color="#FFA400"/>
        </linearGradient>
    </defs>
    <path fill="url(#a)" fill-rule="evenodd" d="M14.166 29.988l-3.738-10.08H8.37v10.08H.642V0h10.416c3.36 0 5.971.854 7.833 2.562 1.862 1.708 2.793 4.102 2.793 7.182 0 1.624-.35 3.115-1.05 4.473-.7 1.358-1.694 2.499-2.982 3.423l5.082 12.348h-8.568zm-3.57-16.59c1.092 0 1.925-.301 2.499-.903.574-.602.861-1.463.861-2.583 0-1.092-.28-1.932-.84-2.52-.56-.588-1.372-.882-2.436-.882H8.37v6.888h2.226zm32.036 16.59V0h8.232v29.988h-8.232zm30.104 0V0h9.66c4.34 0 7.623 1.253 9.849 3.759 2.226 2.506 3.339 6.181 3.339 11.025 0 4.9-1.12 8.659-3.36 11.277-2.24 2.618-5.474 3.927-9.702 3.927h-9.786zm10.332-7.434c1.372 0 2.387-.63 3.045-1.89.658-1.26.987-3.178.987-5.754 0-2.548-.336-4.431-1.008-5.649-.672-1.218-1.708-1.827-3.108-1.827H80.8v15.12h2.268zm33.38 7.434V0h18.186v6.972h-10.038v4.41h9.408v6.972h-9.408v4.662h10.71l-.63 6.972h-18.228z"/>
</svg>
